<?xml version="1.0" encoding="UTF-8" standalone="no"?>
<svg
   xmlns="http://www.w3.org/2000/svg"
   width="990"
   height="765"
   viewBox="0 0 990 765"
   version="1.1">
  <g
     id="layer3"
     style="display:inline">
    <g
       id="g4176">
      <g
         id="g3370">
        <path
           id="path3349"
           style="fill:#ffffff;fill-opacity:1;stroke:none"
           d="m 317.25926,208.13034 q 8.63693,0 16.74507,2.88046 8.2844,2.88047 15.68749,9.36152 3.34902,-1.44024 6.87429,-2.88047 3.70154,-1.62026 7.40309,-2.88047 3.70154,-1.2602 7.40307,-1.98032 3.87782,-0.90014 7.75561,-0.90014 1.93891,0 4.05406,0.54009 2.29144,0.54008 4.05409,1.62026 1.93891,1.08018 3.17274,2.88046 1.23384,1.62027 1.05758,3.96065 -0.35252,3.96063 -2.29141,7.74125 -1.93891,3.60058 -5.11166,7.02113 -3.17275,3.42056 -7.40309,6.66108 -4.05406,3.0605 -8.63693,5.76094 -4.40659,2.70044 -9.16572,5.04082 -4.58287,2.16034 -8.81319,3.96063 -4.23035,1.62026 -7.93188,2.88047 -3.70153,1.08017 -6.16923,1.62027 0.88132,1.62026 1.76263,3.06049 1.05759,1.2602 2.11517,2.16035 1.23385,0.90015 2.64396,1.44023 1.41012,0.36006 3.349,0.18003 1.58639,0 3.17276,-0.36006 1.58638,-0.36006 3.17274,0 0.52881,0.18003 1.23386,0.54009 0.88131,0.18002 1.58637,0.72011 0.70507,0.36006 1.23385,0.90015 0.52879,0.36006 0.35253,1.08017 0,0.72012 -0.52879,1.26021 -0.52879,0.54008 -1.23386,0.90015 -0.70505,0.18002 -1.58636,0.36005 -0.88132,0 -1.41013,0.18003 -1.41009,0 -2.82021,-0.18003 -1.23384,-0.36005 -2.64396,-0.72012 -1.23384,-0.36005 -2.64396,-0.72011 -1.23384,-0.36006 -2.46768,-0.72011 -4.9354,1.08017 -9.342,2.88046 -4.40659,1.80029 -8.28441,4.14067 -3.70153,2.34038 -7.05054,5.40087 -3.17275,2.88047 -5.99297,6.30103 -2.64396,3.24052 -4.75913,7.02113 -2.11518,3.60058 -3.70153,7.56122 -1.41013,3.96065 -2.29144,8.10132 -0.70505,3.96064 -0.88131,8.10131 0,3.96064 1.4101,7.74125 1.41012,3.78061 3.8778,6.84111 2.46769,2.88047 5.46417,4.86078 3.17277,1.80029 6.52178,2.16036 -0.52878,-5.22085 -0.35252,-10.26166 0.35252,-5.04082 1.23384,-9.90161 1.05758,-4.86079 2.64396,-9.36151 1.76264,-4.50073 4.05406,-8.46137 2.29143,-3.96065 5.11165,-7.20117 2.99649,-3.42056 6.16924,-5.76093 3.34903,-2.34038 7.05056,-3.78062 3.8778,-1.62026 7.93188,-1.80029 3.52527,-0.36005 6.16923,1.08018 2.82023,1.44023 4.75913,3.78061 1.93889,2.34038 2.82022,5.22085 1.05758,2.88046 0.88132,5.76093 0,3.06049 -0.70505,6.48104 -0.70507,3.42056 -2.11517,7.02115 -1.41013,3.42055 -3.52528,6.84111 -2.11517,3.42055 -4.93539,6.66107 -2.64396,3.06049 -6.16924,5.94097 -3.52528,2.88046 -7.75561,5.22084 -4.05406,2.16034 -8.98945,3.78061 -4.75913,1.44023 -10.39958,2.16035 0.52879,3.60058 1.23386,7.20116 0.70505,3.78062 1.23384,7.56123 0,0.36006 0.17628,0.72012 0.17629,0.36006 0.17629,0.72011 0.17628,0.36006 0.17628,0.72012 0,0.36006 -0.17628,0.72012 -0.17629,0.18002 -0.5288,0.18002 -0.35252,0 -0.70504,-0.18002 -0.17628,0 -0.52881,-0.36006 -0.17628,-0.18003 -0.35253,-0.36006 -1.23383,-3.96064 -1.93889,-8.10131 -0.70507,-4.14068 -1.58638,-8.10131 -4.40659,-0.18003 -8.10814,-0.90015 -3.70154,-0.54009 -6.69802,-1.62026 -2.99648,-1.08018 -5.46418,-2.70044 -2.29143,-1.62026 -4.05408,-3.60058 -1.76263,-1.98032 -2.99649,-4.14067 -1.23384,-2.34038 -2.11515,-4.68076 -0.70507,-2.52041 -1.05759,-5.04081 -0.35253,-2.70044 -0.35253,-5.22085 -0.17628,-3.78061 0.52879,-7.56122 0.88133,-3.96065 2.4677,-7.56123 1.58638,-3.78062 4.05408,-7.38119 2.46769,-3.78061 5.64044,-7.20117 3.17275,-3.42055 7.05054,-6.30102 3.87782,-3.0605 8.46067,-5.5809 4.75913,-2.52041 10.04705,-4.32071 5.46418,-1.98032 11.63341,-3.24052 -1.76265,-1.62026 -3.52527,-3.24052 -1.76265,-1.80029 -3.52529,-3.60059 -3.17275,0.36006 -6.34549,0.72012 -3.17276,0.36006 -6.3455,0.36006 -7.75562,0 -14.10111,-1.98032 -6.34549,-1.98032 -10.92837,-5.5809 -4.58286,-3.60059 -7.05056,-8.28135 -2.46768,-4.86079 -2.29141,-10.44168 0,-5.76094 2.64396,-10.98178 2.64396,-5.40088 7.22681,-9.54155 4.75912,-4.14067 11.10462,-6.48105 6.52175,-2.5204 14.10111,-2.5204 z m 2.82022,135.20189 q 4.40661,-0.18004 8.46067,-1.08018 4.05408,-1.08018 7.75561,-2.88047 3.70154,-1.80028 6.87428,-4.32069 3.34902,-2.52041 5.99298,-5.40088 2.82022,-3.06049 5.11165,-6.30102 2.29144,-3.42055 3.87782,-7.02113 1.76263,-3.6006 2.82022,-7.02115 1.23384,-3.60058 1.58637,-7.02113 0.35252,-2.16035 -0.52879,-4.3207 -0.70505,-2.34038 -2.29144,-4.14067 -1.4101,-1.98032 -3.349,-3.0605 -1.93892,-1.2602 -3.8778,-1.08017 -3.17277,0 -6.34552,1.62026 -2.99649,1.44024 -6.16923,3.96065 -2.99648,2.34037 -5.8167,5.76093 -2.82023,3.42055 -5.28793,7.38119 -2.29143,3.96064 -4.23032,8.28134 -1.93891,4.3207 -3.17275,8.82143 -1.23385,4.50073 -1.58638,9.18148 -0.35252,4.50074 0.17629,8.64141 z m -2.11517,-132.68148 q -2.82022,0 -5.81671,0.54008 -2.82022,0.36006 -5.64044,1.26021 -2.64396,0.72012 -5.28792,1.98031 -2.46767,1.26021 -4.75911,2.88048 -2.11517,1.62025 -3.87782,3.60058 -1.76262,1.80029 -3.17274,3.96064 -1.23385,2.16035 -1.93889,4.50073 -0.70508,2.34038 -0.70508,4.68075 -0.17628,2.52041 0.52879,4.86079 0.88133,2.34038 2.29144,4.50073 1.41012,1.98032 3.34901,3.96064 1.93891,1.80029 4.23034,3.42055 2.29143,1.44024 4.75913,2.70044 2.64396,1.26021 5.28792,2.34038 2.64394,0.90014 5.2879,1.44023 2.64396,0.54009 5.11165,0.54009 1.93892,0.18003 3.87782,-0.18003 2.11515,-0.36005 4.23033,-0.54008 -0.35253,-1.62026 -1.05758,-3.24053 -0.52879,-1.80029 -0.35252,-3.60058 0.17628,-2.88047 0.88131,-5.40088 0.88131,-2.52041 1.93891,-4.68075 1.23384,-2.16035 2.64396,-3.96064 1.58636,-1.98032 3.34901,-3.60059 1.76262,-1.62026 3.52527,-3.06049 1.76265,-1.62027 3.52527,-2.88047 1.93891,-1.26021 3.70156,-2.34038 1.76262,-1.26021 3.349,-2.5204 -2.11516,-2.16036 -5.46417,-4.14068 -3.34901,-1.98031 -7.22683,-3.42055 -3.8778,-1.62026 -8.28441,-2.52041 -4.23032,-0.90014 -8.2844,-1.08017 z m 35.78158,16.20262 q -4.58287,2.70043 -8.10815,6.30101 -3.34901,3.42056 -5.64044,7.3812 -2.11517,3.78061 -3.34901,7.92128 -1.05757,4.14067 -1.05757,7.92129 5.11163,-0.90014 9.87076,-2.34038 4.9354,-1.44024 9.34198,-3.24053 4.58287,-1.80029 8.63693,-3.96064 4.23035,-2.34037 7.75562,-4.68076 3.70155,-2.5204 6.52177,-5.04081 2.99649,-2.70044 5.11164,-5.40087 2.29144,-2.70045 3.70156,-5.40088 1.41009,-2.88047 1.76262,-5.5809 0.17628,-1.26021 -0.70505,-2.52041 -0.70505,-1.26021 -1.93891,-2.16035 -1.23384,-0.90015 -2.82022,-1.44024 -1.4101,-0.54008 -2.64396,-0.36005 -3.17275,0.36005 -6.34549,1.44023 -3.17276,1.08017 -6.3455,2.52041 -2.99649,1.44023 -5.99297,3.06049 -2.82022,1.62027 -5.64045,3.42055 1.76264,2.16036 3.52528,4.14068 1.76264,1.98032 3.17275,4.14067 0.17628,0.36006 0.35252,0.90014 0.35253,0.54009 0.35253,1.08018 0.17628,0.36006 0,0.72011 0,0.36007 -0.35253,0.54009 -0.35252,0.18003 -0.88131,0.18003 -0.35252,-0.18003 -0.70505,-0.36005 -0.35253,-0.36007 -0.88134,-0.72012 -0.35252,-0.54009 -0.70505,-0.90015 -1.58636,-1.62026 -2.99648,-3.60058 -1.4101,-1.98032 -2.99648,-3.96064 z" />
        <path
           id="path3351"
           style="fill:#ffffff;fill-opacity:1;stroke:none"
           d="m 417.34178,265.12336 q 0.89717,0 1.57002,0.45815 0.89714,0.45815 1.56999,1.14538 0.67288,0.68723 0.89716,1.60354 0.22431,0.91631 0.22431,1.60354 -0.22431,2.06169 -1.57001,3.66523 -1.34571,1.37446 -3.36429,1.83262 -2.46713,0.68723 -4.03715,2.74892 -1.56999,1.83262 -1.56999,5.95601 0.22431,3.66523 0.67286,7.33046 0.67285,3.43616 1.3457,7.10139 0.89716,3.43615 1.34573,7.10139 0.67286,3.43615 0.89714,7.10139 0,1.60353 -0.22431,3.20707 -0.22431,1.37446 -0.67285,2.978 -0.44857,1.60354 -1.12145,3.20708 -0.44857,1.60354 -0.67285,2.978 4.03714,-4.35246 8.07429,-8.47585 4.26145,-4.35246 8.52288,-8.70492 0.22431,-0.22908 0.67285,-0.68723 0.44857,-0.45816 0.89714,-0.45816 0.44857,0 0.89713,0.68723 0.4486,0.45816 0.22431,0.68723 -1.7943,2.29077 -4.03717,5.0397 -2.01855,2.51985 -4.48571,5.26877 -2.24284,2.51985 -4.93428,5.49785 -2.69144,2.74892 -5.60716,5.26877 -2.69144,2.51985 -5.83142,4.81062 -2.91572,2.06169 -6.05572,3.89431 -2.91573,1.60354 -6.05573,2.29077 -3.14001,0.9163 -6.28001,0.9163 -3.81286,0 -6.72856,-0.9163 -2.69144,-0.68723 -4.48574,-2.29077 -2.01856,-1.60354 -2.91569,-3.66524 -1.12145,-2.29077 -1.34574,-4.81061 -0.22431,-1.14539 0.44857,-2.51985 0.44857,-1.60354 1.57002,-2.74892 0.89714,-1.37447 2.24284,-2.0617 1.12145,-0.91631 2.01859,-0.91631 0.67285,0 1.56999,0.45816 1.12144,0.22907 1.7943,0.9163 0.89713,0.45816 1.3457,1.37447 0.44857,0.91631 0.44857,2.29077 -0.22431,1.14538 -0.67285,2.29077 -0.44857,0.91631 -0.89714,2.06169 -0.44857,1.14539 -0.89714,2.29077 -0.44856,0.91631 -0.22431,2.06169 0,0.68724 0.22431,1.14539 0.44857,0.45815 0.89714,0.91631 0.67285,0.45815 1.12142,0.68723 0.67286,0 1.34573,0 2.24285,-0.45816 4.48572,-1.83262 2.46715,-1.60354 4.48571,-3.89431 2.01858,-2.51984 3.81286,-5.49785 1.7943,-2.978 3.36429,-6.41415 1.57001,-3.43616 2.69144,-7.33046 1.3457,-3.89432 2.24284,-7.78863 0.89716,-3.8943 1.34573,-7.78861 0.44857,-4.12339 0.67285,-7.78862 0,-2.0617 -0.44856,-4.81062 -0.22431,-2.74892 -0.44857,-5.03969 -3.58858,3.43615 -6.95287,7.33046 -3.36429,3.89431 -6.72858,7.78862 -3.14001,3.89431 -6.5043,7.78862 -3.36429,3.89431 -6.95286,7.55954 -0.22431,0.22907 -0.67286,0.68723 -0.2243,0.45815 -0.67285,0.45815 -0.44857,0 -0.89714,-0.22907 -0.44859,-0.45816 -0.22431,-0.68723 3.36427,-5.0397 6.95284,-9.62124 3.81289,-4.58154 7.62575,-8.70492 3.81286,-4.35247 7.40143,-8.47585 3.81286,-4.35247 7.62572,-8.70493 0.67285,-1.37446 1.56999,-2.978 0.89714,-1.83262 2.01859,-3.20708 1.12142,-1.37446 2.69143,-2.29077 1.56999,-1.14538 3.36427,-1.14538 z" />
        <path
           id="path3353"
           style="fill:#ffffff;fill-opacity:1;stroke:none"
           d="m 485.30042,255.50212 q -2.69141,4.81062 -6.27998,10.30846 -3.36429,5.49785 -6.95287,11.45386 -3.58857,5.72692 -7.40143,11.68293 -3.81286,5.956 -7.40144,11.68292 -3.36429,5.72693 -6.50429,10.9957 -3.14001,5.03969 -5.38288,9.39216 -2.24284,4.12338 -3.58857,7.33046 -1.34571,3.20708 -1.34571,5.0397 -0.22431,0.68723 0.22431,1.60353 0.44857,0.68724 0.89714,1.37447 0.67285,0.68723 1.34573,1.14538 0.89714,0.45816 1.79427,0.45816 1.57002,0 3.58858,-0.91631 2.01858,-0.91631 4.26143,-2.29077 2.24287,-1.60354 4.48573,-3.43616 2.24285,-2.06169 4.48572,-4.35246 2.24284,-2.29077 4.48571,-4.81062 2.46715,-2.51985 4.71,-4.81062 2.24286,-2.51984 4.26145,-4.81061 2.01856,-2.29077 3.81286,-4.35247 0.67285,-0.45815 1.3457,-0.9163 0.67286,-0.68723 1.56999,-0.68723 0.4486,0 0.89717,0.68723 0.67285,0.45815 0.22431,0.9163 -1.12145,1.60354 -3.14001,3.89431 -1.7943,2.29077 -4.03714,5.0397 -2.01859,2.51984 -4.71002,5.26877 -2.46713,2.74892 -5.15857,5.49785 -2.69144,2.51985 -5.60716,4.81061 -2.69141,2.29077 -5.38285,4.12339 -2.69144,1.83262 -5.38287,2.978 -2.69142,0.91631 -4.93429,0.91631 -2.91572,0.22908 -5.38285,-1.14538 -2.46715,-1.37447 -4.26145,-3.66524 -1.56999,-2.29077 -2.46713,-4.81061 -0.67287,-2.51985 -0.44856,-4.58155 0.89713,-5.26877 2.91569,-9.85031 2.24287,-4.81061 4.93431,-9.39215 2.69141,-4.81062 5.38285,-9.39216 2.91572,-4.58154 5.15859,-9.39216 -4.48574,5.03969 -9.19574,10.07939 -4.70999,5.03969 -9.42001,10.07939 -0.44857,0.45815 -0.89714,0.91631 -0.22431,0.22907 -0.89714,0.68723 -0.22431,-0.45816 -0.44857,-0.68723 -0.22431,-0.45816 -0.44857,-0.91631 3.58858,-4.12339 6.72858,-7.78862 3.36429,-3.66523 6.27999,-7.10139 3.14001,-3.43615 5.60716,-6.41416 2.69144,-2.978 5.15857,-5.956 2.46715,-2.978 4.71002,-5.956 2.24284,-2.978 4.48571,-5.956 2.46715,-3.20708 4.71,-6.64324 2.24287,-3.43615 4.71002,-7.33046 l -12.56003,0 3.36429,-3.43616 11.2143,0 q 3.58857,-5.956 7.17715,-11.912 3.58857,-5.956 7.17715,-11.91201 l 14.3543,0 q -3.81286,5.95601 -7.40144,11.91201 -3.58857,5.956 -7.17715,12.14108 l 26.24145,0 -3.14001,3.20708 -25.34431,0 z" />
        <path
           id="path3355"
           style="fill:#ffffff;fill-opacity:1;stroke:none"
           d="m 530.15762,273.82828 q 2.46716,0 5.15857,0.68723 2.91572,0.45815 4.9343,2.29077 2.01856,1.83262 2.91573,5.0397 0.89713,2.978 -0.67288,7.78861 l 10.31715,-15.80631 14.80287,0 q -2.24284,3.89431 -4.93428,8.24677 -2.46715,4.12339 -5.38287,8.47585 -2.69142,4.35247 -5.60714,8.70493 -2.69144,4.35246 -5.38287,8.47585 -2.69141,4.12339 -5.15857,8.0177 -2.24287,3.8943 -4.03714,7.33046 -1.7943,3.20708 -2.91572,5.956 -0.89714,2.74893 -0.89714,4.81062 0,1.14538 0.22431,1.83262 0.44857,0.68723 0.89714,0.9163 0.44857,0.22908 0.89713,0.45816 0.44857,0 0.89717,0 1.3457,0 2.91569,-0.68723 1.7943,-0.68723 3.81286,-2.0617 2.24287,-1.37446 4.48574,-3.20707 2.24284,-2.0617 4.71,-4.12339 2.46715,-2.29077 4.93428,-4.81062 2.46715,-2.51985 4.71002,-5.03969 2.46713,-2.51985 4.48571,-4.81062 2.24287,-2.51985 4.03715,-4.81062 0.44856,-0.45815 1.12142,-0.45815 0.67288,-0.22908 1.34573,0 0,0 0.22431,0.45815 0.22431,0.22908 0.22431,0.68723 0.22431,0.22908 0.22431,0.45816 0,0.22907 -0.22431,0.45815 -0.44857,0.68723 -1.7943,2.51985 -1.34571,1.60354 -3.36429,3.89431 -2.01856,2.29077 -4.71,5.26877 -2.46715,2.74892 -5.38285,5.49785 -2.91572,2.74892 -6.05573,5.49785 -2.91572,2.74892 -6.05572,4.81061 -3.14001,1.83262 -6.27999,2.97801 -2.91572,1.14538 -5.60716,1.14538 -2.24287,0 -4.03714,-0.68723 -1.57002,-0.68723 -2.91573,-2.06169 -1.12142,-1.60354 -1.79427,-3.66524 -0.4486,-2.29077 -0.4486,-4.81061 0.22431,-2.29077 0.4486,-4.35247 0.44857,-2.29077 0.67285,-4.58154 -2.69144,3.43616 -6.05573,7.10139 -3.14,3.66523 -6.72858,6.64323 -3.58857,2.978 -7.85,4.81062 -4.03714,1.83262 -8.29857,1.83262 -3.58858,0 -6.05573,-1.83262 -2.46715,-2.06169 -4.03714,-5.26877 -1.57002,-3.43615 -2.24287,-7.55954 -0.67286,-4.12339 -0.89714,-8.24677 0,-2.97801 0.67285,-5.72693 0.67286,-2.978 1.12142,-5.72692 -0.67285,0.68723 -1.3457,1.60353 -0.44857,0.91631 -1.34571,1.37447 -0.44857,0.45815 -1.12144,0.9163 -0.67286,0.45816 -1.34571,0.45816 -0.44857,-0.22908 -0.44857,-0.91631 0,-0.91631 0.22431,-1.37446 1.12142,-1.60354 2.91572,-3.89431 2.01856,-2.51985 4.48571,-5.26877 2.46716,-2.74893 5.38288,-5.49785 2.9157,-2.978 6.27999,-5.72693 3.36429,-2.74892 6.95286,-5.26877 3.81286,-2.51985 7.62572,-4.35246 4.03714,-2.06169 8.07431,-3.20708 4.03715,-1.37446 8.29858,-1.60354 z m 2.01856,2.978 q -3.81286,0.68723 -7.62572,2.74893 -3.81286,2.06169 -7.40143,5.03969 -3.36429,2.978 -6.5043,6.87231 -2.91569,3.66523 -5.60713,7.78862 -2.69144,4.12339 -4.93428,8.47585 -2.01859,4.35246 -3.58858,8.24677 -1.34573,3.89431 -2.24287,7.33047 -0.89713,3.43615 -1.12142,5.72692 0,1.14539 0.22431,2.74893 0.44857,1.37446 1.12142,2.74892 0.89714,1.14539 2.01859,2.06169 1.12142,0.68723 2.46713,0.45816 3.81286,-0.68723 7.40143,-2.978 3.81286,-2.29077 7.40143,-5.49785 3.58858,-3.20708 6.95287,-7.10139 3.36429,-3.89431 6.28001,-8.0177 2.91572,-4.35246 5.15857,-8.47585 2.46715,-4.35246 4.26145,-8.01769 1.79428,-3.89431 2.69141,-6.87231 0.89717,-2.978 0.89717,-5.03969 0,-1.14539 -0.67288,-2.51985 -0.67286,-1.60354 -1.79428,-2.978 -1.12142,-1.37447 -2.69143,-2.0617 -1.34571,-0.68723 -2.69144,-0.68723 z" />
        <path
           id="path3357"
           style="fill:#ffffff;fill-opacity:1;stroke:none"
           d="m 627.04915,255.50212 q -2.69144,4.81062 -6.28002,10.30846 -3.36429,5.49785 -6.95286,11.45386 -3.58858,5.72692 -7.40144,11.68293 -3.81286,5.956 -7.40143,11.68292 -3.36429,5.72693 -6.5043,10.9957 -3.14,5.03969 -5.38285,9.39216 -2.24287,4.12338 -3.58857,7.33046 -1.34573,3.20708 -1.34573,5.0397 -0.22431,0.68723 0.22431,1.60353 0.44859,0.68724 0.89716,1.37447 0.67285,0.68723 1.34571,1.14538 0.89713,0.45816 1.7943,0.45816 1.56999,0 3.58857,-0.91631 2.01856,-0.91631 4.26143,-2.29077 2.24284,-1.60354 4.48571,-3.43616 2.24287,-2.06169 4.48571,-4.35246 2.24287,-2.29077 4.48574,-4.81062 2.46713,-2.51985 4.71,-4.81062 2.24284,-2.51984 4.26143,-4.81061 2.01858,-2.29077 3.81285,-4.35247 0.67286,-0.45815 1.34571,-0.9163 0.67288,-0.68723 1.57002,-0.68723 0.44857,0 0.89713,0.68723 0.67286,0.45815 0.22431,0.9163 -1.12142,1.60354 -3.14,3.89431 -1.79428,2.29077 -4.03715,5.0397 -2.01856,2.51984 -4.70999,5.26877 -2.46716,2.74892 -5.15859,5.49785 -2.69142,2.51985 -5.60714,4.81061 -2.69144,2.29077 -5.38287,4.12339 -2.69141,1.83262 -5.38285,2.978 -2.69144,0.91631 -4.93428,0.91631 -2.91573,0.22908 -5.38288,-1.14538 -2.46715,-1.37447 -4.26143,-3.66524 -1.57001,-2.29077 -2.46715,-4.81061 -0.67285,-2.51985 -0.44857,-4.58155 0.89714,-5.26877 2.91572,-9.85031 2.24285,-4.81061 4.93428,-9.39215 2.69144,-4.81062 5.38288,-9.39216 2.91572,-4.58154 5.15857,-9.39216 -4.48572,5.03969 -9.19571,10.07939 -4.71003,5.03969 -9.42002,10.07939 -0.44857,0.45815 -0.89714,0.91631 -0.22431,0.22907 -0.89716,0.68723 -0.22431,-0.45816 -0.44857,-0.68723 -0.22431,-0.45816 -0.44857,-0.91631 3.58857,-4.12339 6.72858,-7.78862 3.36429,-3.66523 6.28001,-7.10139 3.14001,-3.43615 5.60714,-6.41416 2.69144,-2.978 5.15859,-5.956 2.46715,-2.978 4.70999,-5.956 2.24287,-2.978 4.48572,-5.956 2.46715,-3.20708 4.71002,-6.64324 2.24284,-3.43615 4.71,-7.33046 l -12.56,0 3.36426,-3.43616 11.21432,0 q 3.58858,-5.956 7.17715,-11.912 3.58858,-5.956 7.17715,-11.91201 l 14.3543,0 q -3.81286,5.95601 -7.40143,11.91201 -3.58858,5.956 -7.17715,12.14108 l 26.24144,0 -3.14,3.20708 -25.34431,0 z" />
        <path
           id="path3359"
           style="fill:#ffffff;fill-opacity:1;stroke:none"
           d="m 671.90632,273.82828 q 3.14001,0 5.60716,0.91631 2.46715,0.91631 4.03714,2.51985 1.57002,1.37446 2.24287,3.43615 0.89714,2.0617 0.89714,4.12339 0,3.20708 -1.34571,6.18508 -1.12144,2.74892 -3.36429,5.49785 -2.01858,2.51984 -4.9343,5.03969 -2.69142,2.29077 -6.27999,4.35246 -3.36429,2.0617 -7.17715,3.89431 -3.58858,1.60354 -7.62574,3.20708 -3.81286,1.37446 -7.85001,2.51985 -3.81286,1.14538 -7.40143,1.83261 -0.44857,2.74893 -0.89714,5.0397 -0.44857,2.29077 -0.22431,4.58154 0,2.978 0.67285,5.03969 0.89714,1.83262 2.24287,3.20708 1.34571,1.37446 2.9157,2.06169 1.7943,0.45816 3.36429,0.45816 2.24287,0 4.71002,-0.68723 2.46713,-0.68723 4.93428,-2.0617 2.46716,-1.37446 5.15859,-3.20707 2.69142,-1.83262 5.15857,-3.89431 2.69144,-2.29077 5.15856,-4.58154 2.69144,-2.51985 4.93431,-5.0397 2.46713,-2.51984 4.71,-5.03969 2.46715,-2.51985 4.48571,-5.0397 0.44857,-0.45815 0.89716,-0.9163 0.67286,-0.68723 1.56999,-0.68723 0.22431,0 0.67286,0.45815 0.44856,0.45815 0.22431,0.91631 -0.22431,0.68723 -1.56999,2.51984 -1.12143,1.83262 -3.3643,4.35247 -2.01858,2.29077 -4.70999,5.26877 -2.69144,2.978 -6.05573,5.956 -3.14001,2.978 -6.72858,5.72693 -3.36429,2.74892 -7.17715,4.81061 -3.58858,2.0617 -7.17715,3.20708 -3.58858,1.14539 -7.17715,1.14539 -4.03714,0 -7.62572,-1.83262 -3.58857,-1.83262 -6.28001,-5.03969 -2.46716,-3.43616 -4.03715,-7.78862 -1.3457,-4.58154 -1.3457,-10.07939 0,-2.51985 0.44857,-5.0397 0.44857,-2.74892 1.12142,-5.26877 -0.89714,0.91631 -1.79428,2.0617 -0.67287,1.14538 -1.57001,1.83261 -0.44857,0.45816 -0.89714,0.68723 -0.44857,0.22908 -0.89714,0.22908 -0.44857,-0.22908 -0.67287,-0.68723 -0.44857,-0.68723 -0.22431,-0.91631 0.89716,-1.37446 2.46715,-3.66523 1.57001,-2.29077 3.81286,-5.0397 2.46715,-2.74892 5.38287,-5.72692 3.14001,-3.20708 6.50427,-6.18508 3.36429,-2.978 7.17715,-5.72693 4.03717,-2.74892 8.07432,-4.81061 4.03714,-2.0617 8.29857,-3.20708 4.26143,-1.14539 8.52285,-0.91631 z m 0.89716,2.74893 q -2.46715,0 -5.15859,1.14538 -2.46713,1.14539 -5.15856,3.20708 -2.46716,1.83262 -4.93431,4.35246 -2.46713,2.51985 -4.93428,5.49785 -2.24287,2.74892 -4.26143,5.956 -2.01858,3.20708 -3.81286,6.18508 -1.57001,2.978 -2.91572,5.956 -1.12142,2.74893 -1.7943,5.0397 3.36429,-0.68723 6.5043,-1.83262 3.36429,-1.14538 6.50429,-2.74892 3.36429,-1.60354 6.28002,-3.66523 3.14,-2.0617 5.83141,-4.35247 2.69144,-2.29077 4.93431,-4.81061 2.24284,-2.51985 3.81286,-5.0397 1.56999,-2.51984 2.46715,-4.81062 0.89714,-2.51984 0.89714,-4.81061 0,-1.14539 -0.44857,-2.0617 -0.22431,-0.9163 -0.89716,-1.60354 -0.44857,-0.68723 -1.34571,-1.14538 -0.89713,-0.45815 -1.56999,-0.45815 z" />
        <path
           id="path3361"
           style="fill:#ffffff;fill-opacity:1;stroke:none"
           d="m 725.51066,265.12336 q 0.89716,0 1.57001,0.45815 0.89714,0.45815 1.57,1.14538 0.67285,0.68723 0.89713,1.60354 0.22431,0.91631 0.22431,1.60354 -0.22431,2.06169 -1.57001,3.66523 -1.34571,1.37446 -3.36429,1.83262 -2.46716,0.68723 -4.03715,2.74892 -1.56999,1.83262 -1.56999,5.95601 0.22431,3.66523 0.67286,7.33046 0.67285,3.43616 1.3457,7.10139 0.89714,3.43615 1.34573,7.10139 0.67286,3.43615 0.89714,7.10139 0,1.60353 -0.22431,3.20707 -0.22431,1.37446 -0.67285,2.978 -0.4486,1.60354 -1.12145,3.20708 -0.44857,1.60354 -0.67285,2.978 4.03714,-4.35246 8.07428,-8.47585 4.26143,-4.35246 8.52289,-8.70492 0.22431,-0.22908 0.67285,-0.68723 0.44857,-0.45816 0.89714,-0.45816 0.44856,0 0.89713,0.68723 0.44857,0.45816 0.22431,0.68723 -1.79427,2.29077 -4.03714,5.0397 -2.01856,2.51985 -4.48571,5.26877 -2.24287,2.51985 -4.93428,5.49785 -2.69144,2.74892 -5.60716,5.26877 -2.69144,2.51985 -5.83145,4.81062 -2.91569,2.06169 -6.0557,3.89431 -2.91572,1.60354 -6.05573,2.29077 -3.14,0.9163 -6.28001,0.9163 -3.81286,0 -6.72858,-0.9163 -2.69141,-0.68723 -4.48571,-2.29077 -2.01856,-1.60354 -2.91573,-3.66524 -1.12142,-2.29077 -1.3457,-4.81061 -0.22431,-1.14539 0.44857,-2.51985 0.44857,-1.60354 1.57001,-2.74892 0.89714,-1.37447 2.24285,-2.0617 1.12144,-0.91631 2.01858,-0.91631 0.67285,0 1.56999,0.45816 1.12145,0.22907 1.7943,0.9163 0.89714,0.45816 1.34571,1.37447 0.44857,0.91631 0.44857,2.29077 -0.22431,1.14538 -0.67286,2.29077 -0.44857,0.91631 -0.89713,2.06169 -0.44857,1.14539 -0.89714,2.29077 -0.4486,0.91631 -0.22431,2.06169 0,0.68724 0.22431,1.14539 0.44857,0.45815 0.89714,0.91631 0.67285,0.45815 1.12142,0.68723 0.67285,0 1.3457,0 2.24287,-0.45816 4.48574,-1.83262 2.46713,-1.60354 4.48571,-3.89431 2.01859,-2.51984 3.81286,-5.49785 1.7943,-2.978 3.36429,-6.41415 1.56999,-3.43616 2.69144,-7.33046 1.34571,-3.89432 2.24284,-7.78863 0.89717,-3.8943 1.34574,-7.78861 0.44856,-4.12339 0.67285,-7.78862 0,-2.0617 -0.44857,-4.81062 -0.22431,-2.74892 -0.44857,-5.03969 -3.58857,3.43615 -6.95286,7.33046 -3.36429,3.89431 -6.72859,7.78862 -3.14,3.89431 -6.50429,7.78862 -3.36429,3.89431 -6.95287,7.55954 -0.22431,0.22907 -0.67285,0.68723 -0.22431,0.45815 -0.67285,0.45815 -0.44857,0 -0.89717,-0.22907 -0.44857,-0.45816 -0.22431,-0.68723 3.36429,-5.0397 6.95287,-9.62124 3.81286,-4.58154 7.62572,-8.70492 3.81288,-4.35247 7.40146,-8.47585 3.81286,-4.35247 7.62572,-8.70493 0.67285,-1.37446 1.56999,-2.978 0.89713,-1.83262 2.01858,-3.20708 1.12142,-1.37446 2.69141,-2.29077 1.57002,-1.14538 3.36429,-1.14538 z" />
      </g>
      <text
         id="text3379"
         y="400.29431"
         x="466.75137"
         style="font-style:normal;font-variant:normal;font-weight:normal;font-stretch:normal;font-size:40px;line-height:125%;font-family:Monospace;letter-spacing:0px;word-spacing:0px;fill:#ffffff;fill-opacity:1;stroke:none"
         xml:space="preserve"><tspan
           style="font-style:normal;font-variant:normal;font-weight:900;font-stretch:normal;font-size:50px;font-family:'Arial Black';"
           y="400.29431"
           x="466.75137"
           id="tspan3381">OF</tspan></text>
      <text
         transform="scale(1.0415392,0.96011746)"
         id="text3383"
         y="539.45459"
         x="35.639961"
         style="font-style:normal;font-variant:normal;font-weight:normal;font-stretch:normal;font-size:63.77106476px;line-height:125%;font-family:Monospace;letter-spacing:0px;word-spacing:0px;fill:#ffffff;fill-opacity:1;stroke:none"
         xml:space="preserve"><tspan
           style="font-style:normal;font-variant:normal;font-weight:900;font-stretch:normal;font-size:143.4848938px;font-family:'Arial Black';"
           y="539.45459"
           x="35.639961"
           id="tspan3385">PINEWOOD</tspan></text>
      <rect
         y="375.08112"
         x="172.73607"
         height="7.0710688"
         width="263.64981"
         id="rect3359"
         style="opacity:1;fill:#ffffff;fill-opacity:1" />
      <rect
         y="375.58618"
         x="568.21082"
         height="7.0710688"
         width="263.64981"
         id="rect3359-0"
         style="display:inline;opacity:1;fill:#ffffff;fill-opacity:1" />
    </g>
  </g>
</svg>
